<svg width="122" height="34" viewBox="0 0 122 34" fill="none" xmlns="http://www.w3.org/2000/svg">
<path d="M2.4375 17C2.4375 22.8296 7.1704 27.5625 13 27.5625C18.8296 27.5625 23.5625 22.8296 23.5625 17C23.5625 11.1704 18.8296 6.4375 13 6.4375C7.1704 6.4375 2.4375 11.1704 2.4375 17Z" fill="url(#paint0_linear_0_396)"/>
<path opacity="0.85" d="M8.36877 14.9687C8.36877 15.5069 8.80566 15.9437 9.34377 15.9437C9.88189 15.9437 10.3188 15.5069 10.3188 14.9687C10.3188 14.4306 9.88189 13.9937 9.34377 13.9937C8.80566 13.9937 8.36877 14.4306 8.36877 14.9687Z" fill="white"/>
<path opacity="0.85" d="M12.025 12.9375C12.025 13.4756 12.4619 13.9125 13 13.9125C13.5381 13.9125 13.975 13.4756 13.975 12.9375C13.975 12.3994 13.5381 11.9625 13 11.9625C12.4619 11.9625 12.025 12.3994 12.025 12.9375Z" fill="white"/>
<path opacity="0.85" d="M15.6813 14.9687C15.6813 15.5069 16.1182 15.9437 16.6563 15.9437C17.1944 15.9437 17.6313 15.5069 17.6313 14.9687C17.6313 14.4306 17.1944 13.9937 16.6563 13.9937C16.1182 13.9937 15.6813 14.4306 15.6813 14.9687Z" fill="white"/>
<path opacity="0.85" d="M9.58752 18.2187C9.58752 18.7569 10.0244 19.1937 10.5625 19.1937C11.1006 19.1937 11.5375 18.7569 11.5375 18.2187C11.5375 17.6806 11.1006 17.2437 10.5625 17.2437C10.0244 17.2437 9.58752 17.6806 9.58752 18.2187Z" fill="white"/>
<path opacity="0.85" d="M14.4625 18.2187C14.4625 18.7569 14.8994 19.1937 15.4375 19.1937C15.9756 19.1937 16.4125 18.7569 16.4125 18.2187C16.4125 17.6806 15.9756 17.2437 15.4375 17.2437C14.8994 17.2437 14.4625 17.6806 14.4625 18.2187Z" fill="white"/>
<path opacity="0.85" d="M12.025 21.0625C12.025 21.6006 12.4619 22.0375 13 22.0375C13.5381 22.0375 13.975 21.6006 13.975 21.0625C13.975 20.5244 13.5381 20.0875 13 20.0875C12.4619 20.0875 12.025 20.5244 12.025 21.0625Z" fill="white"/>
<path d="M17.875 9.6875L21.9375 7.25L20.3125 11.3125L17.875 9.6875Z" fill="#E8A92B"/>
<path d="M35.0037 12.1191C34.641 12.1191 34.3625 12.0119 34.168 11.7974C33.9736 11.583 33.8763 11.2797 33.8763 10.8877V5.75384C33.8763 5.35493 33.9736 5.04997 34.168 4.83894C34.3625 4.62792 34.641 4.52241 35.0037 4.52241C35.3663 4.52241 35.6466 4.62792 35.8445 4.83894C36.0424 5.04997 36.1413 5.35493 36.1413 5.75384V10.8877C36.1413 11.2797 36.0449 11.583 35.852 11.7974C35.6591 12.0119 35.3763 12.1191 35.0037 12.1191ZM35.0037 3.29186C34.591 3.29186 34.2723 3.19261 34.0476 2.99412C33.8228 2.79563 33.7104 2.51632 33.7104 2.15621C33.7104 1.78922 33.8228 1.5082 34.0476 1.31314C34.2723 1.11808 34.591 1.02055 35.0037 1.02055C35.4232 1.02055 35.7436 1.11808 35.9649 1.31314C36.1862 1.5082 36.2969 1.78922 36.2969 2.15621C36.2969 2.51632 36.1862 2.79563 35.9649 2.99412C35.7436 3.19261 35.4232 3.29186 35.0037 3.29186ZM38.6237 12.1294C38.261 12.1294 37.9825 12.0305 37.788 11.8326C37.5936 11.6347 37.4963 11.3494 37.4963 10.9768V2.43794C37.4963 2.06529 37.5936 1.78174 37.788 1.58729C37.9825 1.39283 38.261 1.2956 38.6237 1.2956C38.9863 1.2956 39.2666 1.39283 39.4645 1.58729C39.6624 1.78174 39.7613 2.06529 39.7613 2.43794V7.68633H39.7913L41.9562 5.26897C42.1781 5.01885 42.3805 4.83018 42.5634 4.70295C42.7463 4.57572 42.9944 4.51211 43.3076 4.51211C43.6209 4.51211 43.8607 4.59136 44.027 4.74985C44.1933 4.90834 44.2788 5.10217 44.2835 5.33132C44.2882 5.56047 44.1896 5.79041 43.9877 6.02113L41.6878 8.5744V7.71922L44.2333 10.6636C44.4321 10.8974 44.5185 11.1283 44.4925 11.3562C44.4666 11.5841 44.3621 11.7699 44.1793 11.9137C43.9964 12.0575 43.7649 12.1294 43.4847 12.1294C43.1452 12.1294 42.875 12.0658 42.6739 11.9386C42.4729 11.8113 42.263 11.6142 42.0442 11.3472L39.7913 8.82397H39.7613V10.9768C39.7613 11.7452 39.3821 12.1294 38.6237 12.1294ZM48.8838 14.8594C48.3407 14.8594 47.8229 14.8149 47.3304 14.7258C46.8379 14.6368 46.4008 14.5045 46.019 14.329C45.782 14.229 45.6177 14.0972 45.5261 13.9337C45.4344 13.7702 45.3964 13.6003 45.412 13.424C45.4276 13.2477 45.4861 13.0896 45.5873 12.9499C45.6886 12.8101 45.8194 12.7109 45.9798 12.6521C46.1401 12.5933 46.311 12.6054 46.4923 12.6886C46.9323 12.8866 47.3412 13.0158 47.7189 13.0761C48.0967 13.1364 48.4178 13.1666 48.6821 13.1666C49.3271 13.1666 49.8092 13.0213 50.1285 12.7308C50.4479 12.4402 50.6075 11.9984 50.6075 11.4054V10.2575H50.7378C50.5847 10.7236 50.2746 11.0998 49.8074 11.386C49.3402 11.6722 48.8207 11.8153 48.2489 11.8153C47.5921 11.8153 47.0178 11.6628 46.5263 11.3578C46.0347 11.0528 45.6531 10.6245 45.3816 10.073C45.11 9.52139 44.9742 8.87904 44.9742 8.1459C44.9742 7.59277 45.0525 7.09214 45.2091 6.64401C45.3656 6.19588 45.5872 5.81103 45.8738 5.48946C46.1603 5.16789 46.5053 4.91961 46.9088 4.74461C47.3122 4.56961 47.7589 4.48211 48.2489 4.48211C48.8407 4.48211 49.3644 4.62443 49.82 4.90907C50.2756 5.19371 50.575 5.56567 50.7181 6.02495L50.5728 6.51741V5.65445C50.5728 5.2818 50.6718 4.99825 50.8697 4.80379C51.0676 4.60934 51.3428 4.51211 51.6955 4.51211C52.0581 4.51211 52.3351 4.60934 52.5264 4.80379C52.7178 4.99825 52.8134 5.2818 52.8134 5.65445V11.1428C52.8134 12.3767 52.4765 13.3046 51.8026 13.9265C51.1288 14.5484 50.1558 14.8594 48.8838 14.8594ZM48.9187 10.1225C49.2617 10.1225 49.5567 10.0435 49.8039 9.88538C50.051 9.7273 50.2426 9.50034 50.3788 9.2045C50.515 8.90865 50.5831 8.55579 50.5831 8.1459C50.5831 7.52795 50.4327 7.04496 50.1319 6.69695C49.831 6.34893 49.4266 6.17492 48.9187 6.17492C48.5788 6.17492 48.2845 6.25396 48.0358 6.41204C47.7872 6.57011 47.5947 6.79535 47.4585 7.08776C47.3223 7.38018 47.2542 7.73289 47.2542 8.1459C47.2542 8.76386 47.4046 9.24778 47.7055 9.59766C48.0063 9.94755 48.4107 10.1225 48.9187 10.1225ZM56.6615 12.1594C56.1127 12.1594 55.6253 12.0553 55.1994 11.8472C54.7734 11.6391 54.4406 11.3561 54.2009 10.9983C53.9612 10.6404 53.8413 10.2352 53.8413 9.78271C53.8413 9.24271 53.9813 8.816 54.2613 8.50256C54.5413 8.18913 54.9948 7.9632 55.6216 7.82476C56.2485 7.68633 57.0841 7.61711 58.1284 7.61711H58.916V8.78638H58.134C57.6268 8.78638 57.2172 8.8156 56.9051 8.87403C56.5931 8.93247 56.3681 9.02635 56.2304 9.15569C56.0926 9.28503 56.0237 9.4609 56.0237 9.68332C56.0237 9.96633 56.1223 10.198 56.3194 10.3782C56.5165 10.5584 56.7966 10.6486 57.1596 10.6486C57.4489 10.6486 57.7061 10.582 57.9314 10.449C58.1566 10.3159 58.3364 10.1324 58.4707 9.89838C58.6051 9.6644 58.6722 9.39434 58.6722 9.08819V7.35849C58.6722 6.92427 58.5716 6.61517 58.3704 6.43119C58.1692 6.24722 57.8258 6.15523 57.3403 6.15523C57.0722 6.15523 56.7801 6.18631 56.4639 6.24848C56.1477 6.31065 55.803 6.4189 55.4299 6.57324C55.2023 6.66637 55.0042 6.68589 54.8358 6.6318C54.6673 6.5777 54.5375 6.47797 54.4466 6.33261C54.3556 6.18725 54.3109 6.02704 54.3125 5.85198C54.314 5.67693 54.3658 5.5075 54.4677 5.34371C54.5696 5.17991 54.7344 5.05675 54.962 4.97422C55.4282 4.79049 55.87 4.66253 56.2871 4.59036C56.7043 4.5182 57.0848 4.48211 57.4285 4.48211C58.1986 4.48211 58.8326 4.59603 59.3305 4.82386C59.8284 5.05169 60.201 5.39828 60.4482 5.86364C60.6954 6.329 60.819 6.92578 60.819 7.65397V10.9768C60.819 11.3494 60.7291 11.6347 60.5494 11.8326C60.3696 12.0305 60.11 12.1294 59.7705 12.1294C59.431 12.1294 59.1688 12.0305 58.9841 11.8326C58.7993 11.6347 58.7069 11.3494 58.7069 10.9768V10.4212L58.8128 10.5199C58.7522 10.8542 58.6249 11.1434 58.4309 11.3874C58.2368 11.6315 57.9903 11.8211 57.6913 11.9564C57.3922 12.0917 57.049 12.1594 56.6615 12.1594Z" fill="#103642"/>
<path d="M65.6638 14.8594C65.1207 14.8594 64.6029 14.8149 64.1104 14.7258C63.6179 14.6368 63.1808 14.5045 62.799 14.329C62.562 14.229 62.3977 14.0972 62.3061 13.9337C62.2144 13.7702 62.1764 13.6003 62.192 13.424C62.2076 13.2477 62.2661 13.0896 62.3673 12.9499C62.4686 12.8101 62.5994 12.7109 62.7598 12.6521C62.9201 12.5933 63.091 12.6054 63.2723 12.6886C63.7123 12.8866 64.1212 13.0158 64.4989 13.0761C64.8767 13.1364 65.1978 13.1666 65.4621 13.1666C66.1071 13.1666 66.5892 13.0213 66.9085 12.7308C67.2279 12.4402 67.3875 11.9984 67.3875 11.4054V10.2575H67.5178C67.3647 10.7236 67.0546 11.0998 66.5874 11.386C66.1202 11.6722 65.6007 11.8153 65.0289 11.8153C64.3721 11.8153 63.7978 11.6628 63.3063 11.3578C62.8147 11.0528 62.4331 10.6245 62.1616 10.073C61.89 9.52139 61.7542 8.87904 61.7542 8.1459C61.7542 7.59277 61.8325 7.09214 61.9891 6.64401C62.1456 6.19588 62.3672 5.81103 62.6538 5.48946C62.9403 5.16789 63.2853 4.91961 63.6888 4.74461C64.0922 4.56961 64.5389 4.48211 65.0289 4.48211C65.6207 4.48211 66.1444 4.62443 66.6 4.90907C67.0556 5.19371 67.355 5.56567 67.4981 6.02495L67.3528 6.51741V5.65445C67.3528 5.2818 67.4518 4.99825 67.6497 4.80379C67.8476 4.60934 68.1228 4.51211 68.4755 4.51211C68.8381 4.51211 69.1151 4.60934 69.3064 4.80379C69.4978 4.99825 69.5934 5.2818 69.5934 5.65445V11.1428C69.5934 12.3767 69.2565 13.3046 68.5826 13.9265C67.9088 14.5484 66.9358 14.8594 65.6638 14.8594ZM65.6987 10.1225C66.0417 10.1225 66.3367 10.0435 66.5839 9.88538C66.831 9.7273 67.0226 9.50034 67.1588 9.2045C67.295 8.90865 67.3631 8.55579 67.3631 8.1459C67.3631 7.52795 67.2127 7.04496 66.9119 6.69695C66.611 6.34893 66.2066 6.17492 65.6987 6.17492C65.3588 6.17492 65.0645 6.25396 64.8158 6.41204C64.5672 6.57011 64.3747 6.79535 64.2385 7.08776C64.1023 7.38018 64.0342 7.73289 64.0342 8.1459C64.0342 8.76386 64.1846 9.24778 64.4855 9.59766C64.7863 9.94755 65.1907 10.1225 65.6987 10.1225ZM74.489 12.1594C73.7008 12.1594 73.0142 12.0044 72.4291 11.6944C71.844 11.3844 71.3895 10.9403 71.0654 10.3622C70.7413 9.78407 70.5792 9.10187 70.5792 8.3156C70.5792 7.72247 70.6706 7.19106 70.8535 6.72136C71.0363 6.25166 71.2998 5.84853 71.6439 5.51196C71.988 5.17539 72.4002 4.91961 72.8805 4.74461C73.3609 4.56961 73.897 4.48211 74.489 4.48211C75.2803 4.48211 75.9677 4.63711 76.5512 4.94711C77.1347 5.25711 77.5885 5.69868 77.9126 6.27181C78.2367 6.84494 78.3987 7.52621 78.3987 8.3156C78.3987 8.90874 78.3073 9.44187 78.1245 9.915C77.9416 10.3881 77.6782 10.793 77.3341 11.1295C76.99 11.4661 76.5778 11.7219 76.0974 11.8969C75.617 12.0719 75.0809 12.1594 74.489 12.1594ZM74.489 10.4666C74.812 10.4666 75.0955 10.3883 75.3395 10.2318C75.5834 10.0753 75.7743 9.83835 75.9121 9.52094C76.0499 9.20353 76.1187 8.80175 76.1187 8.3156C76.1187 7.58138 75.9683 7.04105 75.6675 6.6946C75.3666 6.34815 74.9738 6.17492 74.489 6.17492C74.1691 6.17492 73.8864 6.25146 73.6408 6.40453C73.3953 6.55761 73.2036 6.79207 73.0659 7.10791C72.9281 7.42376 72.8592 7.82632 72.8592 8.3156C72.8592 9.04296 73.0096 9.58329 73.3105 9.93661C73.6113 10.2899 74.0041 10.4666 74.489 10.4666ZM82.0417 12.1594C81.1459 12.1594 80.4794 11.9117 80.0422 11.4164C79.6049 10.921 79.3863 10.1836 79.3863 9.20405V2.43794C79.3863 2.06529 79.4836 1.78174 79.678 1.58729C79.8725 1.39283 80.151 1.2956 80.5137 1.2956C80.8763 1.2956 81.1566 1.39283 81.3545 1.58729C81.5524 1.78174 81.6513 2.06529 81.6513 2.43794V9.11874C81.6513 9.53176 81.7371 9.83574 81.9086 10.0307C82.0801 10.2256 82.3129 10.3231 82.6072 10.3231C82.684 10.3231 82.759 10.3182 82.8322 10.3085C82.9053 10.2988 82.98 10.2906 83.0563 10.2837C83.215 10.27 83.3273 10.3192 83.3929 10.4314C83.4586 10.5437 83.4914 10.773 83.4914 11.1193C83.4914 11.4163 83.432 11.6434 83.3132 11.8007C83.1944 11.9579 83.006 12.0578 82.7478 12.1003C82.6572 12.1103 82.5467 12.1227 82.4163 12.1373C82.286 12.152 82.1611 12.1594 82.0417 12.1594ZM85.4997 12.1294C85.1371 12.1294 84.8568 12.0305 84.6589 11.8326C84.4611 11.6347 84.3621 11.3494 84.3621 10.9768V6.32402H83.8225C83.5417 6.32402 83.3254 6.25056 83.1735 6.10363C83.0216 5.9567 82.9456 5.74975 82.9456 5.48276C82.9456 5.20891 83.0216 5.00024 83.1735 4.85675C83.3254 4.71325 83.5417 4.64151 83.8225 4.64151H85.0196L84.3621 5.23987V4.77216C84.3621 3.70457 84.6307 2.90388 85.168 2.37009C85.7052 1.83629 86.4936 1.51813 87.5331 1.4156L88.0102 1.3706C88.2666 1.34434 88.472 1.38075 88.6264 1.47985C88.7809 1.57894 88.8852 1.70852 88.9393 1.86858C88.9934 2.02864 89.0046 2.19276 88.9731 2.36095C88.9415 2.52915 88.8719 2.67436 88.7644 2.79658C88.6569 2.91881 88.5172 2.98649 88.3452 2.99962L88.1352 3.01462C87.5934 3.05462 87.2066 3.1824 86.9748 3.39794C86.743 3.61348 86.6271 3.93867 86.6271 4.37349V4.8956L86.3495 4.64151H87.7C87.9839 4.64151 88.201 4.71325 88.3514 4.85675C88.5017 5.00024 88.5769 5.20891 88.5769 5.48276C88.5769 5.74975 88.5017 5.9567 88.3514 6.10363C88.201 6.25056 87.9839 6.32402 87.7 6.32402H86.6271V10.9768C86.6271 11.7452 86.2513 12.1294 85.4997 12.1294ZM92.7684 12.1594C91.9039 12.1594 91.1584 12.0028 90.5317 11.6897C89.9051 11.3766 89.423 10.9327 89.0855 10.358C88.748 9.78325 88.5792 9.10434 88.5792 8.32121C88.5792 7.56121 88.7414 6.89464 89.0658 6.32151C89.3902 5.74838 89.8377 5.29853 90.4084 4.97196C90.9791 4.64539 91.6288 4.48211 92.3576 4.48211C92.8933 4.48211 93.3764 4.56946 93.8071 4.74416C94.2377 4.91886 94.6068 5.16934 94.9144 5.4956C95.2219 5.82187 95.4563 6.21642 95.6176 6.67925C95.7788 7.14208 95.8594 7.66162 95.8594 8.23789C95.8594 8.42729 95.8001 8.56948 95.6813 8.66448C95.5626 8.75948 95.3867 8.80698 95.1535 8.80698H90.4466V7.63771H94.2246L93.9893 7.84392C93.9893 7.4309 93.9297 7.08819 93.8103 6.81578C93.691 6.54337 93.5187 6.33641 93.2935 6.1949C93.0682 6.05339 92.7891 5.98264 92.4561 5.98264C92.0893 5.98264 91.7749 6.06761 91.5128 6.23755C91.2507 6.40749 91.0507 6.65195 90.913 6.97093C90.7752 7.28991 90.7063 7.67717 90.7063 8.13271V8.24711C90.7063 9.01386 90.8816 9.57546 91.2321 9.93191C91.5827 10.2884 92.111 10.4666 92.8172 10.4666C93.0584 10.4666 93.3321 10.4372 93.6383 10.3785C93.9445 10.3197 94.2348 10.2245 94.5091 10.0927C94.7442 9.98206 94.9495 9.94601 95.1252 9.9845C95.3008 10.023 95.4385 10.1055 95.5382 10.2322C95.6379 10.3588 95.6954 10.5079 95.7107 10.6795C95.726 10.8512 95.6891 11.0198 95.6 11.1855C95.5109 11.3511 95.3639 11.4874 95.1588 11.5943C94.8119 11.7861 94.4259 11.9282 94.0006 12.0207C93.5754 12.1132 93.1646 12.1594 92.7684 12.1594ZM97.9137 12.1294C97.551 12.1294 97.2725 12.0305 97.078 11.8326C96.8836 11.6347 96.7863 11.3494 96.7863 10.9768V5.65445C96.7863 5.2818 96.8828 4.99825 97.0757 4.80379C97.2686 4.60934 97.5413 4.51211 97.894 4.51211C98.2466 4.51211 98.5186 4.60934 98.7099 4.80379C98.9012 4.99825 98.9969 5.2818 98.9969 5.65445V6.5147L98.8319 6.02224C99.0613 5.52356 99.4038 5.1422 99.8594 4.87817C100.315 4.61413 100.832 4.48211 101.409 4.48211C101.999 4.48211 102.484 4.59446 102.864 4.81916C103.244 5.04386 103.529 5.38497 103.719 5.8425C103.909 6.30003 104.004 6.87976 104.004 7.58168V10.9768C104.004 11.3494 103.907 11.6347 103.712 11.8326C103.518 12.0305 103.239 12.1294 102.877 12.1294C102.514 12.1294 102.234 12.0305 102.036 11.8326C101.838 11.6347 101.739 11.3494 101.739 10.9768V7.68108C101.739 7.17059 101.646 6.8018 101.461 6.57469C101.276 6.34758 100.994 6.23402 100.616 6.23402C100.142 6.23402 99.762 6.38459 99.4777 6.68574C99.1934 6.98689 99.0513 7.38801 99.0513 7.8891V10.9768C99.0513 11.7452 98.6721 12.1294 97.9137 12.1294Z" fill="#5BB286"/>
<path d="M106.395 12.0797C105.998 12.0797 105.683 11.9598 105.448 11.7201C105.213 11.4803 105.096 11.1704 105.096 10.7903C105.096 10.417 105.213 10.113 105.448 9.87824C105.683 9.64348 105.998 9.52611 106.395 9.52611C106.801 9.52611 107.117 9.64348 107.341 9.87824C107.566 10.113 107.678 10.417 107.678 10.7903C107.678 11.1704 107.566 11.4803 107.341 11.7201C107.117 11.9598 106.801 12.0797 106.395 12.0797ZM109.939 12.1294C109.576 12.1294 109.297 12.0305 109.103 11.8326C108.909 11.6347 108.811 11.3494 108.811 10.9768V5.65445C108.811 5.2818 108.908 4.99825 109.101 4.80379C109.294 4.60934 109.566 4.51211 109.919 4.51211C110.272 4.51211 110.544 4.60934 110.735 4.80379C110.926 4.99825 111.022 5.2818 111.022 5.65445V6.5147L110.857 6.02224C111.086 5.52356 111.429 5.1422 111.884 4.87817C112.34 4.61413 112.857 4.48211 113.434 4.48211C114.024 4.48211 114.509 4.59446 114.889 4.81916C115.269 5.04386 115.554 5.38497 115.744 5.8425C115.934 6.30003 116.029 6.87976 116.029 7.58168V10.9768C116.029 11.3494 115.932 11.6347 115.737 11.8326C115.543 12.0305 115.264 12.1294 114.902 12.1294C114.539 12.1294 114.259 12.0305 114.061 11.8326C113.863 11.6347 113.764 11.3494 113.764 10.9768V7.68108C113.764 7.17059 113.671 6.8018 113.486 6.57469C113.301 6.34758 113.019 6.23402 112.641 6.23402C112.167 6.23402 111.787 6.38459 111.503 6.68574C111.218 6.98689 111.076 7.38801 111.076 7.8891V10.9768C111.076 11.7452 110.697 12.1294 109.939 12.1294ZM119.992 12.1594C119.096 12.1594 118.429 11.9117 117.992 11.4164C117.555 10.921 117.336 10.1836 117.336 9.20405V2.43794C117.336 2.06529 117.434 1.78174 117.628 1.58729C117.822 1.39283 118.101 1.2956 118.464 1.2956C118.826 1.2956 119.107 1.39283 119.304 1.58729C119.502 1.78174 119.601 2.06529 119.601 2.43794V9.11874C119.601 9.53176 119.687 9.83574 119.859 10.0307C120.03 10.2256 120.263 10.3231 120.557 10.3231C120.634 10.3231 120.709 10.3182 120.782 10.3085C120.855 10.2988 120.93 10.2906 121.006 10.2837C121.165 10.27 121.277 10.3192 121.343 10.4314C121.409 10.5437 121.441 10.773 121.441 11.1193C121.441 11.4163 121.382 11.6434 121.263 11.8007C121.144 11.9579 120.956 12.0578 120.698 12.1003C120.607 12.1103 120.497 12.1227 120.366 12.1373C120.236 12.152 120.111 12.1594 119.992 12.1594Z" fill="#677A82"/>
<path d="M35.55 24.0765C35.0967 24.0765 34.7057 23.9915 34.377 23.8215C34.054 23.6458 33.8018 23.3993 33.6205 23.082C33.4448 22.759 33.357 22.3765 33.357 21.9345C33.357 21.5038 33.4448 21.127 33.6205 20.804C33.7962 20.481 34.037 20.2288 34.343 20.0475C34.649 19.8662 34.9975 19.7755 35.3885 19.7755C35.6775 19.7755 35.9353 19.8237 36.162 19.92C36.3887 20.0107 36.5813 20.1467 36.74 20.328C36.9043 20.5037 37.0262 20.719 37.1055 20.974C37.1905 21.229 37.233 21.5152 37.233 21.8325C37.233 21.9288 37.2047 22.0025 37.148 22.0535C37.0913 22.0988 37.0063 22.1215 36.893 22.1215H34.037V21.5945H36.655L36.5105 21.7135C36.5105 21.4302 36.468 21.1893 36.383 20.991C36.3037 20.7927 36.1818 20.6425 36.0175 20.5405C35.8588 20.4328 35.6605 20.379 35.4225 20.379C35.1562 20.379 34.9295 20.4413 34.7425 20.566C34.5612 20.6907 34.4223 20.8635 34.326 21.0845C34.2297 21.3055 34.1815 21.5633 34.1815 21.858V21.909C34.1815 22.4077 34.2977 22.7845 34.53 23.0395C34.768 23.2888 35.1108 23.4135 35.5585 23.4135C35.7285 23.4135 35.907 23.3908 36.094 23.3455C36.2867 23.3002 36.468 23.2237 36.638 23.116C36.7343 23.0593 36.8193 23.0338 36.893 23.0395C36.9723 23.0452 37.0347 23.0707 37.08 23.116C37.131 23.1613 37.1622 23.218 37.1735 23.286C37.1848 23.354 37.1735 23.4248 37.1395 23.4985C37.1055 23.5665 37.046 23.6288 36.961 23.6855C36.7683 23.8158 36.5445 23.915 36.2895 23.983C36.0345 24.0453 35.788 24.0765 35.55 24.0765ZM40.3154 24.0765C39.8621 24.0765 39.4711 23.9915 39.1424 23.8215C38.8194 23.6458 38.5673 23.3993 38.3859 23.082C38.2103 22.759 38.1224 22.3765 38.1224 21.9345C38.1224 21.5038 38.2103 21.127 38.3859 20.804C38.5616 20.481 38.8024 20.2288 39.1084 20.0475C39.4144 19.8662 39.7629 19.7755 40.1539 19.7755C40.4429 19.7755 40.7008 19.8237 40.9274 19.92C41.1541 20.0107 41.3468 20.1467 41.5054 20.328C41.6698 20.5037 41.7916 20.719 41.8709 20.974C41.9559 21.229 41.9984 21.5152 41.9984 21.8325C41.9984 21.9288 41.9701 22.0025 41.9134 22.0535C41.8568 22.0988 41.7718 22.1215 41.6584 22.1215H38.8024V21.5945H41.4204L41.2759 21.7135C41.2759 21.4302 41.2334 21.1893 41.1484 20.991C41.0691 20.7927 40.9473 20.6425 40.7829 20.5405C40.6243 20.4328 40.4259 20.379 40.1879 20.379C39.9216 20.379 39.6949 20.4413 39.5079 20.566C39.3266 20.6907 39.1878 20.8635 39.0914 21.0845C38.9951 21.3055 38.9469 21.5633 38.9469 21.858V21.909C38.9469 22.4077 39.0631 22.7845 39.2954 23.0395C39.5334 23.2888 39.8763 23.4135 40.3239 23.4135C40.4939 23.4135 40.6724 23.3908 40.8594 23.3455C41.0521 23.3002 41.2334 23.2237 41.4034 23.116C41.4998 23.0593 41.5848 23.0338 41.6584 23.0395C41.7378 23.0452 41.8001 23.0707 41.8454 23.116C41.8964 23.1613 41.9276 23.218 41.9389 23.286C41.9503 23.354 41.9389 23.4248 41.9049 23.4985C41.8709 23.5665 41.8114 23.6288 41.7264 23.6855C41.5338 23.8158 41.3099 23.915 41.0549 23.983C40.7999 24.0453 40.5534 24.0765 40.3154 24.0765ZM43.5594 24.0595C43.4234 24.0595 43.3185 24.0227 43.2449 23.949C43.1712 23.8697 43.1344 23.762 43.1344 23.626V20.226C43.1344 20.0843 43.1712 19.9767 43.2449 19.903C43.3185 19.8293 43.4205 19.7925 43.5509 19.7925C43.6869 19.7925 43.7889 19.8293 43.8569 19.903C43.9305 19.9767 43.9674 20.0843 43.9674 20.226V20.889L43.8739 20.736C43.9985 20.4187 44.194 20.1807 44.4604 20.022C44.7267 19.8577 45.0327 19.7755 45.3784 19.7755C45.707 19.7755 45.979 19.8378 46.1944 19.9625C46.4154 20.0815 46.5797 20.2657 46.6874 20.515C46.795 20.7587 46.8489 21.0675 46.8489 21.4415V23.626C46.8489 23.762 46.812 23.8697 46.7384 23.949C46.6647 24.0227 46.5599 24.0595 46.4239 24.0595C46.2822 24.0595 46.1745 24.0227 46.1009 23.949C46.0272 23.8697 45.9904 23.762 45.9904 23.626V21.4925C45.9904 21.1355 45.9195 20.8748 45.7779 20.7105C45.6419 20.5462 45.4265 20.464 45.1319 20.464C44.7862 20.464 44.5085 20.5717 44.2989 20.787C44.0949 21.0023 43.9929 21.2913 43.9929 21.654V23.626C43.9929 23.915 43.8484 24.0595 43.5594 24.0595ZM49.7968 24.0595C49.6778 24.0595 49.573 24.0283 49.4823 23.966C49.3973 23.9037 49.3265 23.8073 49.2698 23.677L47.8503 20.379C47.805 20.277 47.788 20.1807 47.7993 20.09C47.8107 19.9993 47.8532 19.9285 47.9268 19.8775C48.0005 19.8208 48.0997 19.7925 48.2243 19.7925C48.332 19.7925 48.417 19.818 48.4793 19.869C48.5417 19.92 48.5983 20.0078 48.6493 20.1325L49.9328 23.2945H49.6948L51.0038 20.1325C51.0548 20.0078 51.1115 19.92 51.1738 19.869C51.2418 19.818 51.3353 19.7925 51.4543 19.7925C51.5563 19.7925 51.6357 19.8208 51.6923 19.8775C51.7547 19.9285 51.7915 19.9993 51.8028 20.09C51.8198 20.175 51.8057 20.2685 51.7603 20.3705L50.3238 23.677C50.2728 23.8073 50.202 23.9037 50.1113 23.966C50.0207 24.0283 49.9158 24.0595 49.7968 24.0595ZM54.5336 24.0765C54.1143 24.0765 53.7516 23.9887 53.4456 23.813C53.1453 23.6373 52.9101 23.388 52.7401 23.065C52.5701 22.742 52.4851 22.3623 52.4851 21.926C52.4851 21.5917 52.5333 21.2942 52.6296 21.0335C52.726 20.7728 52.862 20.549 53.0376 20.362C53.219 20.1693 53.4343 20.0248 53.6836 19.9285C53.9386 19.8265 54.222 19.7755 54.5336 19.7755C54.9473 19.7755 55.3043 19.8633 55.6046 20.039C55.9106 20.2147 56.1486 20.464 56.3186 20.787C56.4886 21.1043 56.5736 21.484 56.5736 21.926C56.5736 22.2547 56.5255 22.5522 56.4291 22.8185C56.3328 23.0848 56.194 23.3115 56.0126 23.4985C55.837 23.6855 55.6216 23.83 55.3666 23.932C55.1173 24.0283 54.8396 24.0765 54.5336 24.0765ZM54.5336 23.4135C54.766 23.4135 54.97 23.3568 55.1456 23.2435C55.3213 23.1302 55.4573 22.963 55.5536 22.742C55.6556 22.521 55.7066 22.249 55.7066 21.926C55.7066 21.4387 55.599 21.0703 55.3836 20.821C55.1683 20.5717 54.885 20.447 54.5336 20.447C54.2956 20.447 54.0888 20.5037 53.9131 20.617C53.7375 20.7247 53.5986 20.889 53.4966 21.11C53.4003 21.331 53.3521 21.603 53.3521 21.926C53.3521 22.4077 53.4598 22.776 53.6751 23.031C53.8905 23.286 54.1766 23.4135 54.5336 23.4135ZM59.2168 24.0765C58.8824 24.0765 58.6019 24.0142 58.3753 23.8895C58.1543 23.7648 57.9871 23.5807 57.8738 23.337C57.7661 23.0877 57.7123 22.776 57.7123 22.402V20.226C57.7123 20.0787 57.7491 19.971 57.8228 19.903C57.8964 19.8293 58.0013 19.7925 58.1373 19.7925C58.2733 19.7925 58.3781 19.8293 58.4518 19.903C58.5311 19.971 58.5708 20.0787 58.5708 20.226V22.4105C58.5708 22.7448 58.6388 22.9913 58.7748 23.15C58.9108 23.3087 59.1261 23.388 59.4208 23.388C59.7438 23.388 60.0044 23.2803 60.2028 23.065C60.4068 22.844 60.5088 22.555 60.5088 22.198V20.226C60.5088 20.0787 60.5456 19.971 60.6193 19.903C60.6929 19.8293 60.8006 19.7925 60.9423 19.7925C61.0783 19.7925 61.1831 19.8293 61.2568 19.903C61.3304 19.971 61.3673 20.0787 61.3673 20.226V23.626C61.3673 23.915 61.2284 24.0595 60.9508 24.0595C60.8204 24.0595 60.7184 24.0227 60.6448 23.949C60.5711 23.8697 60.5343 23.762 60.5343 23.626V22.9035L60.6448 23.0905C60.5314 23.4078 60.3501 23.6515 60.1008 23.8215C59.8514 23.9915 59.5568 24.0765 59.2168 24.0765ZM64.3581 24.0765C63.9955 24.0765 63.6753 23.9915 63.3976 23.8215C63.1256 23.6458 62.9131 23.3965 62.7601 23.0735C62.6071 22.7448 62.5306 22.3623 62.5306 21.926C62.5306 21.4783 62.6071 21.0958 62.7601 20.7785C62.9131 20.4612 63.1256 20.2147 63.3976 20.039C63.6753 19.8633 63.9955 19.7755 64.3581 19.7755C64.7208 19.7755 65.0325 19.8662 65.2931 20.0475C65.5595 20.2232 65.738 20.4612 65.8286 20.7615H65.7351V18.3815C65.7351 18.2398 65.772 18.1322 65.8456 18.0585C65.9193 17.9848 66.0241 17.948 66.1601 17.948C66.2961 17.948 66.401 17.9848 66.4746 18.0585C66.554 18.1322 66.5936 18.2398 66.5936 18.3815V23.626C66.5936 23.762 66.5568 23.8697 66.4831 23.949C66.4095 24.0227 66.3046 24.0595 66.1686 24.0595C66.0326 24.0595 65.9278 24.0227 65.8541 23.949C65.7805 23.8697 65.7436 23.762 65.7436 23.626V22.878L65.8371 23.065C65.7465 23.371 65.568 23.6175 65.3016 23.8045C65.041 23.9858 64.7265 24.0765 64.3581 24.0765ZM64.5791 23.4135C64.8115 23.4135 65.0155 23.3568 65.1911 23.2435C65.3668 23.1302 65.5028 22.963 65.5991 22.742C65.7011 22.521 65.7521 22.249 65.7521 21.926C65.7521 21.4387 65.6445 21.0703 65.4291 20.821C65.2138 20.5717 64.9305 20.447 64.5791 20.447C64.3411 20.447 64.1343 20.5037 63.9586 20.617C63.783 20.7247 63.6441 20.889 63.5421 21.11C63.4458 21.331 63.3976 21.603 63.3976 21.926C63.3976 22.4077 63.5053 22.776 63.7206 23.031C63.936 23.286 64.2221 23.4135 64.5791 23.4135ZM68.4241 24.051C68.2881 24.051 68.1833 24.0113 68.1096 23.932C68.0359 23.847 67.9991 23.7308 67.9991 23.5835V20.2685C67.9991 20.1212 68.0359 20.0078 68.1096 19.9285C68.1833 19.8492 68.2881 19.8095 68.4241 19.8095C68.5601 19.8095 68.6649 19.8492 68.7386 19.9285C68.8179 20.0078 68.8576 20.1212 68.8576 20.2685V23.5835C68.8576 23.7308 68.8208 23.847 68.7471 23.932C68.6734 24.0113 68.5658 24.051 68.4241 24.051ZM68.4241 18.9255C68.2541 18.9255 68.1209 18.883 68.0246 18.798C67.9339 18.713 67.8886 18.594 67.8886 18.441C67.8886 18.2823 67.9339 18.1633 68.0246 18.084C68.1209 17.999 68.2541 17.9565 68.4241 17.9565C68.5941 17.9565 68.7244 17.999 68.8151 18.084C68.9114 18.1633 68.9596 18.2823 68.9596 18.441C68.9596 18.594 68.9114 18.713 68.8151 18.798C68.7244 18.883 68.5941 18.9255 68.4241 18.9255ZM72.1445 25.6065C71.8385 25.6065 71.541 25.5753 71.252 25.513C70.9687 25.4507 70.7108 25.3487 70.4785 25.207C70.3935 25.1617 70.3368 25.105 70.3085 25.037C70.2802 24.9747 70.2717 24.9095 70.283 24.8415C70.3 24.7735 70.3312 24.714 70.3765 24.663C70.4218 24.612 70.4757 24.578 70.538 24.561C70.606 24.544 70.6768 24.5553 70.7505 24.595C70.9998 24.731 71.235 24.8217 71.456 24.867C71.6827 24.918 71.8923 24.9435 72.085 24.9435C72.4817 24.9435 72.7792 24.8415 72.9775 24.6375C73.1758 24.4392 73.275 24.1445 73.275 23.7535V22.8865H73.3515C73.2665 23.1982 73.088 23.4447 72.816 23.626C72.544 23.8073 72.2295 23.898 71.8725 23.898C71.4985 23.898 71.1727 23.813 70.895 23.643C70.6173 23.4673 70.402 23.2265 70.249 22.9205C70.096 22.6088 70.0195 22.2462 70.0195 21.8325C70.0195 21.5208 70.062 21.2403 70.147 20.991C70.2377 20.7417 70.3623 20.5263 70.521 20.345C70.6853 20.1637 70.8808 20.0248 71.1075 19.9285C71.3398 19.8265 71.5948 19.7755 71.8725 19.7755C72.2352 19.7755 72.5497 19.8662 72.816 20.0475C73.088 20.2288 73.2637 20.4753 73.343 20.787L73.258 20.9315V20.226C73.258 20.0843 73.2948 19.9767 73.3685 19.903C73.4478 19.8293 73.5527 19.7925 73.683 19.7925C73.819 19.7925 73.9238 19.8293 73.9975 19.903C74.0712 19.9767 74.108 20.0843 74.108 20.226V23.6515C74.108 24.2975 73.9408 24.7848 73.6065 25.1135C73.2722 25.4422 72.7848 25.6065 72.1445 25.6065ZM72.0765 23.2265C72.3258 23.2265 72.5383 23.1698 72.714 23.0565C72.8897 22.9432 73.0257 22.7817 73.122 22.572C73.2183 22.3623 73.2665 22.1158 73.2665 21.8325C73.2665 21.4075 73.1588 21.0703 72.9435 20.821C72.7338 20.5717 72.4448 20.447 72.0765 20.447C71.8328 20.447 71.6232 20.5037 71.4475 20.617C71.2718 20.7303 71.133 20.8918 71.031 21.1015C70.9347 21.3055 70.8865 21.5492 70.8865 21.8325C70.8865 22.2632 70.9942 22.6032 71.2095 22.8525C71.4248 23.1018 71.7138 23.2265 72.0765 23.2265ZM79.8326 25.6065C79.5266 25.6065 79.2291 25.5753 78.9401 25.513C78.6568 25.4507 78.3989 25.3487 78.1666 25.207C78.0816 25.1617 78.0249 25.105 77.9966 25.037C77.9683 24.9747 77.9598 24.9095 77.9711 24.8415C77.9881 24.7735 78.0193 24.714 78.0646 24.663C78.1099 24.612 78.1638 24.578 78.2261 24.561C78.2941 24.544 78.3649 24.5553 78.4386 24.595C78.6879 24.731 78.9231 24.8217 79.1441 24.867C79.3708 24.918 79.5804 24.9435 79.7731 24.9435C80.1698 24.9435 80.4673 24.8415 80.6656 24.6375C80.8639 24.4392 80.9631 24.1445 80.9631 23.7535V22.8865H81.0396C80.9546 23.1982 80.7761 23.4447 80.5041 23.626C80.2321 23.8073 79.9176 23.898 79.5606 23.898C79.1866 23.898 78.8608 23.813 78.5831 23.643C78.3054 23.4673 78.0901 23.2265 77.9371 22.9205C77.7841 22.6088 77.7076 22.2462 77.7076 21.8325C77.7076 21.5208 77.7501 21.2403 77.8351 20.991C77.9258 20.7417 78.0504 20.5263 78.2091 20.345C78.3734 20.1637 78.5689 20.0248 78.7956 19.9285C79.0279 19.8265 79.2829 19.7755 79.5606 19.7755C79.9233 19.7755 80.2378 19.8662 80.5041 20.0475C80.7761 20.2288 80.9518 20.4753 81.0311 20.787L80.9461 20.9315V20.226C80.9461 20.0843 80.9829 19.9767 81.0566 19.903C81.1359 19.8293 81.2408 19.7925 81.3711 19.7925C81.5071 19.7925 81.6119 19.8293 81.6856 19.903C81.7593 19.9767 81.7961 20.0843 81.7961 20.226V23.6515C81.7961 24.2975 81.6289 24.7848 81.2946 25.1135C80.9603 25.4422 80.4729 25.6065 79.8326 25.6065ZM79.7646 23.2265C80.0139 23.2265 80.2264 23.1698 80.4021 23.0565C80.5778 22.9432 80.7138 22.7817 80.8101 22.572C80.9064 22.3623 80.9546 22.1158 80.9546 21.8325C80.9546 21.4075 80.8469 21.0703 80.6316 20.821C80.4219 20.5717 80.1329 20.447 79.7646 20.447C79.5209 20.447 79.3113 20.5037 79.1356 20.617C78.9599 20.7303 78.8211 20.8918 78.7191 21.1015C78.6228 21.3055 78.5746 21.5492 78.5746 21.8325C78.5746 22.2632 78.6823 22.6032 78.8976 22.8525C79.1129 23.1018 79.4019 23.2265 79.7646 23.2265ZM85.003 24.0765C84.5836 24.0765 84.221 23.9887 83.915 23.813C83.6146 23.6373 83.3795 23.388 83.2095 23.065C83.0395 22.742 82.9545 22.3623 82.9545 21.926C82.9545 21.5917 83.0026 21.2942 83.099 21.0335C83.1953 20.7728 83.3313 20.549 83.507 20.362C83.6883 20.1693 83.9036 20.0248 84.153 19.9285C84.408 19.8265 84.6913 19.7755 85.003 19.7755C85.4166 19.7755 85.7736 19.8633 86.074 20.039C86.38 20.2147 86.618 20.464 86.788 20.787C86.958 21.1043 87.043 21.484 87.043 21.926C87.043 22.2547 86.9948 22.5522 86.8985 22.8185C86.8021 23.0848 86.6633 23.3115 86.482 23.4985C86.3063 23.6855 86.091 23.83 85.836 23.932C85.5866 24.0283 85.309 24.0765 85.003 24.0765ZM85.003 23.4135C85.2353 23.4135 85.4393 23.3568 85.615 23.2435C85.7906 23.1302 85.9266 22.963 86.023 22.742C86.125 22.521 86.176 22.249 86.176 21.926C86.176 21.4387 86.0683 21.0703 85.853 20.821C85.6376 20.5717 85.3543 20.447 85.003 20.447C84.765 20.447 84.5581 20.5037 84.3825 20.617C84.2068 20.7247 84.068 20.889 83.966 21.11C83.8696 21.331 83.8215 21.603 83.8215 21.926C83.8215 22.4077 83.9291 22.776 84.1445 23.031C84.3598 23.286 84.646 23.4135 85.003 23.4135ZM89.5416 24.0765C89.0996 24.0765 88.7653 23.949 88.5386 23.694C88.3176 23.4333 88.2071 23.0593 88.2071 22.572V18.3815C88.2071 18.2398 88.2439 18.1322 88.3176 18.0585C88.3913 17.9848 88.4961 17.948 88.6321 17.948C88.7681 17.948 88.8729 17.9848 88.9466 18.0585C89.0259 18.1322 89.0656 18.2398 89.0656 18.3815V22.521C89.0656 22.8043 89.1223 23.0168 89.2356 23.1585C89.3546 23.2945 89.5246 23.3625 89.7456 23.3625C89.7966 23.3625 89.8419 23.3625 89.8816 23.3625C89.9213 23.3568 89.9609 23.3512 90.0006 23.3455C90.0686 23.3398 90.1168 23.3597 90.1451 23.405C90.1734 23.4447 90.1876 23.5297 90.1876 23.66C90.1876 23.779 90.1621 23.8725 90.1111 23.9405C90.0601 24.0028 89.9779 24.0425 89.8646 24.0595C89.8136 24.0652 89.7598 24.068 89.7031 24.068C89.6464 24.0737 89.5926 24.0765 89.5416 24.0765ZM91.6105 24.0595C91.4745 24.0595 91.3669 24.0227 91.2875 23.949C91.2139 23.8697 91.177 23.762 91.177 23.626V20.515H90.701C90.5934 20.515 90.5084 20.4867 90.446 20.43C90.3837 20.3677 90.3525 20.2855 90.3525 20.1835C90.3525 20.0758 90.3837 19.9937 90.446 19.937C90.5084 19.8803 90.5934 19.852 90.701 19.852H91.4235L91.177 20.0815V19.7755C91.177 19.2145 91.3159 18.7923 91.5935 18.509C91.8712 18.22 92.2764 18.05 92.809 17.999L93.0725 17.982C93.1689 17.9707 93.2454 17.9848 93.302 18.0245C93.3587 18.0642 93.3955 18.1152 93.4125 18.1775C93.4295 18.2398 93.4295 18.305 93.4125 18.373C93.4012 18.4353 93.3729 18.492 93.3275 18.543C93.2822 18.594 93.2255 18.6223 93.1575 18.628L92.996 18.6365C92.6617 18.6648 92.418 18.7612 92.265 18.9255C92.112 19.0842 92.0355 19.3278 92.0355 19.6565V19.988L91.9165 19.852H92.86C92.979 19.852 93.0669 19.8803 93.1235 19.937C93.1859 19.9937 93.217 20.0758 93.217 20.1835C93.217 20.2855 93.1859 20.3677 93.1235 20.43C93.0669 20.4867 92.979 20.515 92.86 20.515H92.0355V23.626C92.0355 23.915 91.8939 24.0595 91.6105 24.0595ZM95.6295 24.0765C95.2895 24.0765 95.0033 24.017 94.771 23.898C94.5387 23.779 94.3658 23.6033 94.2525 23.371C94.1392 23.1387 94.0825 22.8553 94.0825 22.521V20.515H93.5725C93.4592 20.515 93.3713 20.4867 93.309 20.43C93.2467 20.3677 93.2155 20.2855 93.2155 20.1835C93.2155 20.0758 93.2467 19.9937 93.309 19.937C93.3713 19.8803 93.4592 19.852 93.5725 19.852H94.0825V18.9765C94.0825 18.8348 94.1193 18.7272 94.193 18.6535C94.2723 18.5798 94.38 18.543 94.516 18.543C94.652 18.543 94.7568 18.5798 94.8305 18.6535C94.9042 18.7272 94.941 18.8348 94.941 18.9765V19.852H95.9355C96.0488 19.852 96.1367 19.8803 96.199 19.937C96.2613 19.9937 96.2925 20.0758 96.2925 20.1835C96.2925 20.2855 96.2613 20.3677 96.199 20.43C96.1367 20.4867 96.0488 20.515 95.9355 20.515H94.941V22.453C94.941 22.7533 95.0033 22.98 95.128 23.133C95.2583 23.286 95.468 23.3625 95.757 23.3625C95.859 23.3625 95.9468 23.354 96.0205 23.337C96.0998 23.3143 96.165 23.3002 96.216 23.2945C96.2783 23.2945 96.3293 23.3172 96.369 23.3625C96.4087 23.4022 96.4285 23.4815 96.4285 23.6005C96.4285 23.6855 96.4115 23.7648 96.3775 23.8385C96.3492 23.9122 96.2953 23.9603 96.216 23.983C96.148 24.0057 96.0545 24.0255 95.9355 24.0425C95.8222 24.0652 95.7202 24.0765 95.6295 24.0765ZM97.6657 24.051C97.5297 24.051 97.4249 24.0113 97.3512 23.932C97.2775 23.847 97.2407 23.7308 97.2407 23.5835V20.2685C97.2407 20.1212 97.2775 20.0078 97.3512 19.9285C97.4249 19.8492 97.5297 19.8095 97.6657 19.8095C97.8017 19.8095 97.9065 19.8492 97.9802 19.9285C98.0595 20.0078 98.0992 20.1212 98.0992 20.2685V23.5835C98.0992 23.7308 98.0624 23.847 97.9887 23.932C97.915 24.0113 97.8074 24.051 97.6657 24.051ZM97.6657 18.9255C97.4957 18.9255 97.3625 18.883 97.2662 18.798C97.1755 18.713 97.1302 18.594 97.1302 18.441C97.1302 18.2823 97.1755 18.1633 97.2662 18.084C97.3625 17.999 97.4957 17.9565 97.6657 17.9565C97.8357 17.9565 97.966 17.999 98.0567 18.084C98.153 18.1633 98.2012 18.2823 98.2012 18.441C98.2012 18.594 98.153 18.713 98.0567 18.798C97.966 18.883 97.8357 18.9255 97.6657 18.9255ZM98.8446 25.615C98.7426 25.6207 98.6604 25.6037 98.5981 25.564C98.5301 25.5243 98.4848 25.4733 98.4621 25.411C98.4338 25.3487 98.4253 25.2835 98.4366 25.2155C98.4423 25.1532 98.4706 25.0965 98.5216 25.0455C98.5669 25.0002 98.6293 24.9747 98.7086 24.969C98.9919 24.952 99.1988 24.8755 99.3291 24.7395C99.4651 24.6035 99.5331 24.3882 99.5331 24.0935V20.226C99.5331 20.0843 99.5699 19.9767 99.6436 19.903C99.7229 19.8293 99.8306 19.7925 99.9666 19.7925C100.108 19.7925 100.213 19.8293 100.281 19.903C100.355 19.9767 100.392 20.0843 100.392 20.226V24.0255C100.392 24.3768 100.332 24.6658 100.213 24.8925C100.1 25.1248 99.9298 25.2977 99.7031 25.411C99.4764 25.5243 99.1903 25.5923 98.8446 25.615ZM99.9666 18.9255C99.7966 18.9255 99.6634 18.883 99.5671 18.798C99.4764 18.713 99.4311 18.594 99.4311 18.441C99.4311 18.2823 99.4764 18.1633 99.5671 18.084C99.6634 17.999 99.7966 17.9565 99.9666 17.9565C100.137 17.9565 100.267 17.999 100.358 18.084C100.448 18.1633 100.494 18.2823 100.494 18.441C100.494 18.594 100.448 18.713 100.358 18.798C100.267 18.883 100.137 18.9255 99.9666 18.9255ZM103.38 24.0765C103.018 24.0765 102.698 23.9915 102.42 23.8215C102.148 23.6458 101.935 23.3965 101.782 23.0735C101.629 22.7448 101.553 22.3623 101.553 21.926C101.553 21.4783 101.629 21.0958 101.782 20.7785C101.935 20.4612 102.148 20.2147 102.42 20.039C102.698 19.8633 103.018 19.7755 103.38 19.7755C103.743 19.7755 104.055 19.8662 104.315 20.0475C104.582 20.2232 104.76 20.4612 104.851 20.7615H104.757V18.3815C104.757 18.2398 104.794 18.1322 104.868 18.0585C104.942 17.9848 105.046 17.948 105.182 17.948C105.318 17.948 105.423 17.9848 105.497 18.0585C105.576 18.1322 105.616 18.2398 105.616 18.3815V23.626C105.616 23.762 105.579 23.8697 105.505 23.949C105.432 24.0227 105.327 24.0595 105.191 24.0595C105.055 24.0595 104.95 24.0227 104.876 23.949C104.803 23.8697 104.766 23.762 104.766 23.626V22.878L104.859 23.065C104.769 23.371 104.59 23.6175 104.324 23.8045C104.063 23.9858 103.749 24.0765 103.38 24.0765ZM103.601 23.4135C103.834 23.4135 104.038 23.3568 104.213 23.2435C104.389 23.1302 104.525 22.963 104.621 22.742C104.723 22.521 104.774 22.249 104.774 21.926C104.774 21.4387 104.667 21.0703 104.451 20.821C104.236 20.5717 103.953 20.447 103.601 20.447C103.363 20.447 103.157 20.5037 102.981 20.617C102.805 20.7247 102.666 20.889 102.564 21.11C102.468 21.331 102.42 21.603 102.42 21.926C102.42 22.4077 102.528 22.776 102.743 23.031C102.958 23.286 103.244 23.4135 103.601 23.4135ZM108.968 24.0765C108.515 24.0765 108.124 23.9915 107.795 23.8215C107.472 23.6458 107.22 23.3993 107.038 23.082C106.863 22.759 106.775 22.3765 106.775 21.9345C106.775 21.5038 106.863 21.127 107.038 20.804C107.214 20.481 107.455 20.2288 107.761 20.0475C108.067 19.8662 108.415 19.7755 108.806 19.7755C109.095 19.7755 109.353 19.8237 109.58 19.92C109.807 20.0107 109.999 20.1467 110.158 20.328C110.322 20.5037 110.444 20.719 110.523 20.974C110.608 21.229 110.651 21.5152 110.651 21.8325C110.651 21.9288 110.623 22.0025 110.566 22.0535C110.509 22.0988 110.424 22.1215 110.311 22.1215H107.455V21.5945H110.073L109.928 21.7135C109.928 21.4302 109.886 21.1893 109.801 20.991C109.722 20.7927 109.6 20.6425 109.435 20.5405C109.277 20.4328 109.078 20.379 108.84 20.379C108.574 20.379 108.347 20.4413 108.16 20.566C107.979 20.6907 107.84 20.8635 107.744 21.0845C107.648 21.3055 107.599 21.5633 107.599 21.858V21.909C107.599 22.4077 107.716 22.7845 107.948 23.0395C108.186 23.2888 108.529 23.4135 108.976 23.4135C109.146 23.4135 109.325 23.3908 109.512 23.3455C109.705 23.3002 109.886 23.2237 110.056 23.116C110.152 23.0593 110.237 23.0338 110.311 23.0395C110.39 23.0452 110.453 23.0707 110.498 23.116C110.549 23.1613 110.58 23.218 110.591 23.286C110.603 23.354 110.591 23.4248 110.557 23.4985C110.523 23.5665 110.464 23.6288 110.379 23.6855C110.186 23.8158 109.962 23.915 109.707 23.983C109.452 24.0453 109.206 24.0765 108.968 24.0765ZM112.212 24.0595C112.076 24.0595 111.971 24.0227 111.897 23.949C111.824 23.8697 111.787 23.762 111.787 23.626V20.226C111.787 20.0843 111.824 19.9767 111.897 19.903C111.971 19.8293 112.073 19.7925 112.203 19.7925C112.339 19.7925 112.441 19.8293 112.509 19.903C112.583 19.9767 112.62 20.0843 112.62 20.226V20.889L112.526 20.736C112.651 20.4187 112.846 20.1807 113.113 20.022C113.379 19.8577 113.685 19.7755 114.031 19.7755C114.359 19.7755 114.631 19.8378 114.847 19.9625C115.068 20.0815 115.232 20.2657 115.34 20.515C115.447 20.7587 115.501 21.0675 115.501 21.4415V23.626C115.501 23.762 115.464 23.8697 115.391 23.949C115.317 24.0227 115.212 24.0595 115.076 24.0595C114.935 24.0595 114.827 24.0227 114.753 23.949C114.68 23.8697 114.643 23.762 114.643 23.626V21.4925C114.643 21.1355 114.572 20.8748 114.43 20.7105C114.294 20.5462 114.079 20.464 113.784 20.464C113.439 20.464 113.161 20.5717 112.951 20.787C112.747 21.0023 112.645 21.2913 112.645 21.654V23.626C112.645 23.915 112.501 24.0595 112.212 24.0595ZM34.037 33.0595C33.8953 33.0595 33.7877 33.0227 33.714 32.949C33.6403 32.8697 33.6035 32.762 33.6035 32.626V29.226C33.6035 29.0843 33.6403 28.9767 33.714 28.903C33.7877 28.8293 33.8897 28.7925 34.02 28.7925C34.156 28.7925 34.258 28.8293 34.326 28.903C34.3997 28.9767 34.4365 29.0843 34.4365 29.226V29.8465H34.3515C34.4422 29.5065 34.6093 29.2487 34.853 29.073C35.0967 28.8973 35.4083 28.7953 35.788 28.767C35.89 28.7613 35.9693 28.7868 36.026 28.8435C36.0883 28.9002 36.1223 28.988 36.128 29.107C36.1393 29.226 36.1138 29.3223 36.0515 29.396C35.9892 29.464 35.8928 29.5037 35.7625 29.515L35.601 29.532C35.2327 29.566 34.9522 29.6822 34.7595 29.8805C34.5668 30.0788 34.4705 30.3508 34.4705 30.6965V32.626C34.4705 32.762 34.4337 32.8697 34.36 32.949C34.292 33.0227 34.1843 33.0595 34.037 33.0595ZM38.8628 33.0765C38.4095 33.0765 38.0185 32.9915 37.6898 32.8215C37.3668 32.6458 37.1146 32.3993 36.9333 32.082C36.7576 31.759 36.6698 31.3765 36.6698 30.9345C36.6698 30.5038 36.7576 30.127 36.9333 29.804C37.109 29.481 37.3498 29.2288 37.6558 29.0475C37.9618 28.8662 38.3103 28.7755 38.7013 28.7755C38.9903 28.7755 39.2481 28.8237 39.4748 28.92C39.7015 29.0107 39.8941 29.1467 40.0528 29.328C40.2171 29.5037 40.339 29.719 40.4183 29.974C40.5033 30.229 40.5458 30.5152 40.5458 30.8325C40.5458 30.9288 40.5175 31.0025 40.4608 31.0535C40.4041 31.0988 40.3191 31.1215 40.2058 31.1215H37.3498V30.5945H39.9678L39.8233 30.7135C39.8233 30.4302 39.7808 30.1893 39.6958 29.991C39.6165 29.7927 39.4946 29.6425 39.3303 29.5405C39.1716 29.4328 38.9733 29.379 38.7353 29.379C38.469 29.379 38.2423 29.4413 38.0553 29.566C37.874 29.6907 37.7351 29.8635 37.6388 30.0845C37.5425 30.3055 37.4943 30.5633 37.4943 30.858V30.909C37.4943 31.4077 37.6105 31.7845 37.8428 32.0395C38.0808 32.2888 38.4236 32.4135 38.8713 32.4135C39.0413 32.4135 39.2198 32.3908 39.4068 32.3455C39.5995 32.3002 39.7808 32.2237 39.9508 32.116C40.0471 32.0593 40.1321 32.0338 40.2058 32.0395C40.2851 32.0452 40.3475 32.0707 40.3928 32.116C40.4438 32.1613 40.475 32.218 40.4863 32.286C40.4976 32.354 40.4863 32.4248 40.4523 32.4985C40.4183 32.5665 40.3588 32.6288 40.2738 32.6855C40.0811 32.8158 39.8573 32.915 39.6023 32.983C39.3473 33.0453 39.1008 33.0765 38.8628 33.0765ZM43.1352 33.0765C42.8859 33.0765 42.6281 33.0482 42.3617 32.9915C42.1011 32.9348 41.8602 32.8385 41.6392 32.7025C41.5656 32.6515 41.5146 32.5948 41.4862 32.5325C41.4579 32.4702 41.4466 32.4078 41.4522 32.3455C41.4636 32.2775 41.4891 32.2208 41.5287 32.1755C41.5741 32.1245 41.6279 32.0933 41.6902 32.082C41.7582 32.0707 41.8291 32.0848 41.9027 32.1245C42.1237 32.2492 42.3362 32.337 42.5402 32.388C42.7442 32.4333 42.9454 32.456 43.1437 32.456C43.4441 32.456 43.6707 32.4022 43.8237 32.2945C43.9767 32.1868 44.0532 32.0423 44.0532 31.861C44.0532 31.7137 44.0022 31.6003 43.9002 31.521C43.7982 31.436 43.6452 31.3708 43.4412 31.3255L42.6337 31.164C42.2824 31.0903 42.0161 30.96 41.8347 30.773C41.6534 30.586 41.5627 30.348 41.5627 30.059C41.5627 29.7983 41.6336 29.5717 41.7752 29.379C41.9169 29.1863 42.1152 29.039 42.3702 28.937C42.6252 28.8293 42.9199 28.7755 43.2542 28.7755C43.5036 28.7755 43.7387 28.8067 43.9597 28.869C44.1807 28.9313 44.3847 29.0248 44.5717 29.1495C44.6454 29.1892 44.6936 29.243 44.7162 29.311C44.7389 29.3733 44.7417 29.4357 44.7247 29.498C44.7134 29.5603 44.6851 29.617 44.6397 29.668C44.5944 29.7133 44.5377 29.7417 44.4697 29.753C44.4074 29.7587 44.3366 29.7417 44.2572 29.702C44.0872 29.5943 43.9172 29.5178 43.7472 29.4725C43.5829 29.4272 43.4186 29.4045 43.2542 29.4045C42.9539 29.4045 42.7272 29.4612 42.5742 29.5745C42.4269 29.6822 42.3532 29.8295 42.3532 30.0165C42.3532 30.1582 42.3986 30.2743 42.4892 30.365C42.5799 30.4557 42.7216 30.5208 42.9142 30.5605L43.7217 30.722C44.0901 30.7957 44.3677 30.9203 44.5547 31.096C44.7474 31.2717 44.8437 31.5097 44.8437 31.81C44.8437 32.201 44.6879 32.5098 44.3762 32.7365C44.0646 32.9632 43.6509 33.0765 43.1352 33.0765ZM47.9454 33.0765C47.4921 33.0765 47.1011 32.9915 46.7724 32.8215C46.4494 32.6458 46.1972 32.3993 46.0159 32.082C45.8402 31.759 45.7524 31.3765 45.7524 30.9345C45.7524 30.5038 45.8402 30.127 46.0159 29.804C46.1916 29.481 46.4324 29.2288 46.7384 29.0475C47.0444 28.8662 47.3929 28.7755 47.7839 28.7755C48.0729 28.7755 48.3307 28.8237 48.5574 28.92C48.7841 29.0107 48.9767 29.1467 49.1354 29.328C49.2997 29.5037 49.4216 29.719 49.5009 29.974C49.5859 30.229 49.6284 30.5152 49.6284 30.8325C49.6284 30.9288 49.6001 31.0025 49.5434 31.0535C49.4867 31.0988 49.4017 31.1215 49.2884 31.1215H46.4324V30.5945H49.0504L48.9059 30.7135C48.9059 30.4302 48.8634 30.1893 48.7784 29.991C48.6991 29.7927 48.5772 29.6425 48.4129 29.5405C48.2542 29.4328 48.0559 29.379 47.8179 29.379C47.5516 29.379 47.3249 29.4413 47.1379 29.566C46.9566 29.6907 46.8177 29.8635 46.7214 30.0845C46.6251 30.3055 46.5769 30.5633 46.5769 30.858V30.909C46.5769 31.4077 46.6931 31.7845 46.9254 32.0395C47.1634 32.2888 47.5062 32.4135 47.9539 32.4135C48.1239 32.4135 48.3024 32.3908 48.4894 32.3455C48.6821 32.3002 48.8634 32.2237 49.0334 32.116C49.1297 32.0593 49.2147 32.0338 49.2884 32.0395C49.3677 32.0452 49.4301 32.0707 49.4754 32.116C49.5264 32.1613 49.5576 32.218 49.5689 32.286C49.5802 32.354 49.5689 32.4248 49.5349 32.4985C49.5009 32.5665 49.4414 32.6288 49.3564 32.6855C49.1637 32.8158 48.9399 32.915 48.6849 32.983C48.4299 33.0453 48.1834 33.0765 47.9454 33.0765ZM51.1978 33.0595C51.0562 33.0595 50.9485 33.0227 50.8748 32.949C50.8012 32.8697 50.7643 32.762 50.7643 32.626V29.226C50.7643 29.0843 50.8012 28.9767 50.8748 28.903C50.9485 28.8293 51.0505 28.7925 51.1808 28.7925C51.3168 28.7925 51.4188 28.8293 51.4868 28.903C51.5605 28.9767 51.5973 29.0843 51.5973 29.226V29.8465H51.5123C51.603 29.5065 51.7702 29.2487 52.0138 29.073C52.2575 28.8973 52.5692 28.7953 52.9488 28.767C53.0508 28.7613 53.1302 28.7868 53.1868 28.8435C53.2492 28.9002 53.2832 28.988 53.2888 29.107C53.3002 29.226 53.2747 29.3223 53.2123 29.396C53.15 29.464 53.0537 29.5037 52.9233 29.515L52.7618 29.532C52.3935 29.566 52.113 29.6822 51.9203 29.8805C51.7277 30.0788 51.6313 30.3508 51.6313 30.6965V32.626C51.6313 32.762 51.5945 32.8697 51.5208 32.949C51.4528 33.0227 51.3452 33.0595 51.1978 33.0595ZM55.9991 33.0595C55.8801 33.0595 55.7752 33.0283 55.6846 32.966C55.5996 32.9037 55.5287 32.8073 55.4721 32.677L54.0526 29.379C54.0072 29.277 53.9902 29.1807 54.0016 29.09C54.0129 28.9993 54.0554 28.9285 54.1291 28.8775C54.2027 28.8208 54.3019 28.7925 54.4266 28.7925C54.5342 28.7925 54.6192 28.818 54.6816 28.869C54.7439 28.92 54.8006 29.0078 54.8516 29.1325L56.1351 32.2945H55.8971L57.2061 29.1325C57.2571 29.0078 57.3137 28.92 57.3761 28.869C57.4441 28.818 57.5376 28.7925 57.6566 28.7925C57.7586 28.7925 57.8379 28.8208 57.8946 28.8775C57.9569 28.9285 57.9937 28.9993 58.0051 29.09C58.0221 29.175 58.0079 29.2685 57.9626 29.3705L56.5261 32.677C56.4751 32.8073 56.4042 32.9037 56.3136 32.966C56.2229 33.0283 56.1181 33.0595 55.9991 33.0595ZM60.8804 33.0765C60.427 33.0765 60.036 32.9915 59.7074 32.8215C59.3844 32.6458 59.1322 32.3993 58.9509 32.082C58.7752 31.759 58.6874 31.3765 58.6874 30.9345C58.6874 30.5038 58.7752 30.127 58.9509 29.804C59.1265 29.481 59.3674 29.2288 59.6734 29.0475C59.9794 28.8662 60.3279 28.7755 60.7189 28.7755C61.0079 28.7755 61.2657 28.8237 61.4924 28.92C61.719 29.0107 61.9117 29.1467 62.0704 29.328C62.2347 29.5037 62.3565 29.719 62.4359 29.974C62.5209 30.229 62.5634 30.5152 62.5634 30.8325C62.5634 30.9288 62.535 31.0025 62.4784 31.0535C62.4217 31.0988 62.3367 31.1215 62.2234 31.1215H59.3674V30.5945H61.9854L61.8409 30.7135C61.8409 30.4302 61.7984 30.1893 61.7134 29.991C61.634 29.7927 61.5122 29.6425 61.3479 29.5405C61.1892 29.4328 60.9909 29.379 60.7529 29.379C60.4865 29.379 60.2599 29.4413 60.0729 29.566C59.8915 29.6907 59.7527 29.8635 59.6564 30.0845C59.56 30.3055 59.5119 30.5633 59.5119 30.858V30.909C59.5119 31.4077 59.628 31.7845 59.8604 32.0395C60.0984 32.2888 60.4412 32.4135 60.8889 32.4135C61.0589 32.4135 61.2374 32.3908 61.4244 32.3455C61.617 32.3002 61.7984 32.2237 61.9684 32.116C62.0647 32.0593 62.1497 32.0338 62.2234 32.0395C62.3027 32.0452 62.365 32.0707 62.4104 32.116C62.4614 32.1613 62.4925 32.218 62.5039 32.286C62.5152 32.354 62.5039 32.4248 62.4699 32.4985C62.4359 32.5665 62.3764 32.6288 62.2914 32.6855C62.0987 32.8158 61.8749 32.915 61.6199 32.983C61.3649 33.0453 61.1184 33.0765 60.8804 33.0765ZM64.1328 33.0595C63.9911 33.0595 63.8835 33.0227 63.8098 32.949C63.7361 32.8697 63.6993 32.762 63.6993 32.626V29.226C63.6993 29.0843 63.7361 28.9767 63.8098 28.903C63.8835 28.8293 63.9855 28.7925 64.1158 28.7925C64.2518 28.7925 64.3538 28.8293 64.4218 28.903C64.4955 28.9767 64.5323 29.0843 64.5323 29.226V29.8465H64.4473C64.538 29.5065 64.7051 29.2487 64.9488 29.073C65.1925 28.8973 65.5041 28.7953 65.8838 28.767C65.9858 28.7613 66.0651 28.7868 66.1218 28.8435C66.1841 28.9002 66.2181 28.988 66.2238 29.107C66.2351 29.226 66.2096 29.3223 66.1473 29.396C66.085 29.464 65.9886 29.5037 65.8583 29.515L65.6968 29.532C65.3285 29.566 65.048 29.6822 64.8553 29.8805C64.6626 30.0788 64.5663 30.3508 64.5663 30.6965V32.626C64.5663 32.762 64.5295 32.8697 64.4558 32.949C64.3878 33.0227 64.2801 33.0595 64.1328 33.0595ZM68.9586 33.0765C68.5053 33.0765 68.1143 32.9915 67.7856 32.8215C67.4626 32.6458 67.2104 32.3993 67.0291 32.082C66.8534 31.759 66.7656 31.3765 66.7656 30.9345C66.7656 30.5038 66.8534 30.127 67.0291 29.804C67.2048 29.481 67.4456 29.2288 67.7516 29.0475C68.0576 28.8662 68.4061 28.7755 68.7971 28.7755C69.0861 28.7755 69.3439 28.8237 69.5706 28.92C69.7973 29.0107 69.9899 29.1467 70.1486 29.328C70.3129 29.5037 70.4348 29.719 70.5141 29.974C70.5991 30.229 70.6416 30.5152 70.6416 30.8325C70.6416 30.9288 70.6133 31.0025 70.5566 31.0535C70.4999 31.0988 70.4149 31.1215 70.3016 31.1215H67.4456V30.5945H70.0636L69.9191 30.7135C69.9191 30.4302 69.8766 30.1893 69.7916 29.991C69.7123 29.7927 69.5904 29.6425 69.4261 29.5405C69.2674 29.4328 69.0691 29.379 68.8311 29.379C68.5648 29.379 68.3381 29.4413 68.1511 29.566C67.9698 29.6907 67.8309 29.8635 67.7346 30.0845C67.6383 30.3055 67.5901 30.5633 67.5901 30.858V30.909C67.5901 31.4077 67.7063 31.7845 67.9386 32.0395C68.1766 32.2888 68.5194 32.4135 68.9671 32.4135C69.1371 32.4135 69.3156 32.3908 69.5026 32.3455C69.6953 32.3002 69.8766 32.2237 70.0466 32.116C70.1429 32.0593 70.2279 32.0338 70.3016 32.0395C70.3809 32.0452 70.4433 32.0707 70.4886 32.116C70.5396 32.1613 70.5708 32.218 70.5821 32.286C70.5934 32.354 70.5821 32.4248 70.5481 32.4985C70.5141 32.5665 70.4546 32.6288 70.3696 32.6855C70.1769 32.8158 69.9531 32.915 69.6981 32.983C69.4431 33.0453 69.1966 33.0765 68.9586 33.0765ZM72.2025 33.0595C72.0665 33.0595 71.9617 33.0227 71.888 32.949C71.8144 32.8697 71.7775 32.762 71.7775 32.626V29.226C71.7775 29.0843 71.8144 28.9767 71.888 28.903C71.9617 28.8293 72.0637 28.7925 72.194 28.7925C72.33 28.7925 72.432 28.8293 72.5 28.903C72.5737 28.9767 72.6105 29.0843 72.6105 29.226V29.889L72.517 29.736C72.6417 29.4187 72.8372 29.1807 73.1035 29.022C73.3699 28.8577 73.6759 28.7755 74.0215 28.7755C74.3502 28.7755 74.6222 28.8378 74.8375 28.9625C75.0585 29.0815 75.2229 29.2657 75.3305 29.515C75.4382 29.7587 75.492 30.0675 75.492 30.4415V32.626C75.492 32.762 75.4552 32.8697 75.3815 32.949C75.3079 33.0227 75.203 33.0595 75.067 33.0595C74.9254 33.0595 74.8177 33.0227 74.744 32.949C74.6704 32.8697 74.6335 32.762 74.6335 32.626V30.4925C74.6335 30.1355 74.5627 29.8748 74.421 29.7105C74.285 29.5462 74.0697 29.464 73.775 29.464C73.4294 29.464 73.1517 29.5717 72.942 29.787C72.738 30.0023 72.636 30.2913 72.636 30.654V32.626C72.636 32.915 72.4915 33.0595 72.2025 33.0595Z" fill="#677A82"/>
<defs>
<linearGradient id="paint0_linear_0_396" x1="2.4375" y1="6.4375" x2="23.5625" y2="27.5625" gradientUnits="userSpaceOnUse">
<stop stop-color="#1AA7C0"/>
<stop offset="1" stop-color="#0E5E6F"/>
</linearGradient>
</defs>
</svg>
